<mxfile host="app.diagrams.net" modified="2023-12-18T03:31:54.370Z" agent="Mozilla/5.0 (Windows NT 10.0; Win64; x64; rv:120.0) Gecko/20100101 Firefox/120.0" etag="Pa5virFG9rY8zypPi8Qs" version="22.1.11" type="device">
  <diagram name="Page-1" id="oF1021kZmJnqnFJ4kBoQ">
    <mxGraphModel dx="1724" dy="794" grid="1" gridSize="10" guides="1" tooltips="1" connect="1" arrows="1" fold="1" page="1" pageScale="1" pageWidth="850" pageHeight="1100" math="0" shadow="0">
      <root>
        <mxCell id="0" />
        <mxCell id="1" parent="0" />
        <mxCell id="kYu9_AdjHKjTHxBmhVwr-6" value="" style="rounded=1;whiteSpace=wrap;html=1;fillColor=#ffe6cc;strokeColor=#d79b00;" vertex="1" parent="1">
          <mxGeometry x="750" y="270" width="320" height="270" as="geometry" />
        </mxCell>
        <mxCell id="kYu9_AdjHKjTHxBmhVwr-8" value="" style="rounded=1;whiteSpace=wrap;html=1;fillColor=default;" vertex="1" parent="1">
          <mxGeometry x="790" y="330" width="130" height="200" as="geometry" />
        </mxCell>
        <mxCell id="kYu9_AdjHKjTHxBmhVwr-1" value="" style="rounded=1;whiteSpace=wrap;html=1;fillColor=#fff2cc;strokeColor=#d6b656;" vertex="1" parent="1">
          <mxGeometry x="63.75" y="120" width="626.25" height="620" as="geometry" />
        </mxCell>
        <mxCell id="UigbJbGij-r-r8j5Gcju-48" value="" style="rounded=1;whiteSpace=wrap;html=1;fillColor=#f5f5f5;fontColor=#333333;strokeColor=#666666;movable=1;resizable=1;rotatable=1;deletable=1;editable=1;locked=0;connectable=1;" parent="1" vertex="1">
          <mxGeometry x="90" y="380" width="550" height="320" as="geometry" />
        </mxCell>
        <mxCell id="UigbJbGij-r-r8j5Gcju-9" value="" style="rounded=1;whiteSpace=wrap;html=1;fillColor=#f8cecc;strokeColor=#b85450;" parent="1" vertex="1">
          <mxGeometry x="340" y="410" width="270" height="260" as="geometry" />
        </mxCell>
        <mxCell id="UigbJbGij-r-r8j5Gcju-1" value="Deployment Flow" style="text;html=1;strokeColor=none;fillColor=none;align=center;verticalAlign=middle;whiteSpace=wrap;rounded=0;" parent="1" vertex="1">
          <mxGeometry x="50" y="80" width="210" height="30" as="geometry" />
        </mxCell>
        <mxCell id="UigbJbGij-r-r8j5Gcju-68" style="edgeStyle=orthogonalEdgeStyle;rounded=0;orthogonalLoop=1;jettySize=auto;html=1;exitX=1;exitY=0.5;exitDx=0;exitDy=0;strokeWidth=1;" parent="1" source="UigbJbGij-r-r8j5Gcju-2" target="UigbJbGij-r-r8j5Gcju-3" edge="1">
          <mxGeometry relative="1" as="geometry" />
        </mxCell>
        <mxCell id="UigbJbGij-r-r8j5Gcju-2" value="" style="rounded=1;whiteSpace=wrap;html=1;fillColor=#dae8fc;strokeColor=#6c8ebf;" parent="1" vertex="1">
          <mxGeometry x="120" y="485" width="170" height="140" as="geometry" />
        </mxCell>
        <mxCell id="UigbJbGij-r-r8j5Gcju-3" value="" style="rounded=1;whiteSpace=wrap;html=1;" parent="1" vertex="1">
          <mxGeometry x="375" y="460" width="205" height="190" as="geometry" />
        </mxCell>
        <mxCell id="UigbJbGij-r-r8j5Gcju-4" value="&lt;b&gt;deploy-vpc&lt;/b&gt;" style="text;html=1;strokeColor=none;fillColor=none;align=center;verticalAlign=middle;whiteSpace=wrap;rounded=0;" parent="1" vertex="1">
          <mxGeometry x="140" y="500" width="90" height="30" as="geometry" />
        </mxCell>
        <mxCell id="UigbJbGij-r-r8j5Gcju-5" value="&lt;div&gt;terraform.tfvars&lt;/div&gt;" style="rounded=0;whiteSpace=wrap;html=1;" parent="1" vertex="1">
          <mxGeometry x="145" y="540" width="120" height="50" as="geometry" />
        </mxCell>
        <mxCell id="UigbJbGij-r-r8j5Gcju-6" style="edgeStyle=orthogonalEdgeStyle;rounded=0;orthogonalLoop=1;jettySize=auto;html=1;exitX=0.5;exitY=1;exitDx=0;exitDy=0;" parent="1" source="UigbJbGij-r-r8j5Gcju-2" target="UigbJbGij-r-r8j5Gcju-2" edge="1">
          <mxGeometry relative="1" as="geometry" />
        </mxCell>
        <mxCell id="UigbJbGij-r-r8j5Gcju-7" value="vpc" style="text;html=1;strokeColor=none;fillColor=none;align=center;verticalAlign=middle;whiteSpace=wrap;rounded=0;" parent="1" vertex="1">
          <mxGeometry x="375" y="460" width="60" height="30" as="geometry" />
        </mxCell>
        <mxCell id="UigbJbGij-r-r8j5Gcju-10" value="&lt;b&gt;components&lt;/b&gt;" style="text;html=1;strokeColor=none;fillColor=none;align=center;verticalAlign=middle;whiteSpace=wrap;rounded=0;" parent="1" vertex="1">
          <mxGeometry x="360" y="420" width="60" height="30" as="geometry" />
        </mxCell>
        <mxCell id="UigbJbGij-r-r8j5Gcju-12" value="main.tf" style="rounded=0;whiteSpace=wrap;html=1;" parent="1" vertex="1">
          <mxGeometry x="415" y="490" width="120" height="30" as="geometry" />
        </mxCell>
        <mxCell id="UigbJbGij-r-r8j5Gcju-13" value="&lt;div&gt;variables.tf&lt;/div&gt;" style="rounded=0;whiteSpace=wrap;html=1;" parent="1" vertex="1">
          <mxGeometry x="415" y="530" width="120" height="30" as="geometry" />
        </mxCell>
        <mxCell id="UigbJbGij-r-r8j5Gcju-15" value="outputs.tf" style="rounded=0;whiteSpace=wrap;html=1;" parent="1" vertex="1">
          <mxGeometry x="415" y="570" width="120" height="30" as="geometry" />
        </mxCell>
        <mxCell id="UigbJbGij-r-r8j5Gcju-16" value="&lt;div&gt;providers.tf&lt;/div&gt;" style="rounded=0;whiteSpace=wrap;html=1;" parent="1" vertex="1">
          <mxGeometry x="415" y="610" width="120" height="30" as="geometry" />
        </mxCell>
        <mxCell id="UigbJbGij-r-r8j5Gcju-49" value="&lt;b&gt;aws-terraform-demo&lt;/b&gt;" style="text;html=1;strokeColor=none;fillColor=none;align=center;verticalAlign=middle;whiteSpace=wrap;rounded=0;" parent="1" vertex="1">
          <mxGeometry x="115" y="400" width="125" height="30" as="geometry" />
        </mxCell>
        <mxCell id="kYu9_AdjHKjTHxBmhVwr-2" value="&lt;b&gt;Pull Request&lt;/b&gt;" style="text;html=1;strokeColor=none;fillColor=none;align=center;verticalAlign=middle;whiteSpace=wrap;rounded=0;" vertex="1" parent="1">
          <mxGeometry x="80" y="160" width="120" height="30" as="geometry" />
        </mxCell>
        <mxCell id="kYu9_AdjHKjTHxBmhVwr-15" style="edgeStyle=orthogonalEdgeStyle;rounded=0;orthogonalLoop=1;jettySize=auto;html=1;exitX=0.5;exitY=1;exitDx=0;exitDy=0;strokeWidth=2;" edge="1" parent="1" source="kYu9_AdjHKjTHxBmhVwr-5" target="UigbJbGij-r-r8j5Gcju-48">
          <mxGeometry relative="1" as="geometry" />
        </mxCell>
        <mxCell id="kYu9_AdjHKjTHxBmhVwr-46" style="edgeStyle=orthogonalEdgeStyle;rounded=0;orthogonalLoop=1;jettySize=auto;html=1;exitX=1;exitY=0.5;exitDx=0;exitDy=0;entryX=0;entryY=0.75;entryDx=0;entryDy=0;strokeWidth=2;" edge="1" parent="1" source="kYu9_AdjHKjTHxBmhVwr-5" target="kYu9_AdjHKjTHxBmhVwr-18">
          <mxGeometry relative="1" as="geometry">
            <Array as="points">
              <mxPoint x="650" y="289" />
              <mxPoint x="650" y="433" />
            </Array>
          </mxGeometry>
        </mxCell>
        <mxCell id="kYu9_AdjHKjTHxBmhVwr-5" value="&lt;div&gt;Github Action workflow&lt;/div&gt;&lt;div&gt;plan-vpc.yml&lt;br&gt;&lt;/div&gt;" style="rounded=1;whiteSpace=wrap;html=1;" vertex="1" parent="1">
          <mxGeometry x="285" y="263.75" width="160" height="50" as="geometry" />
        </mxCell>
        <mxCell id="kYu9_AdjHKjTHxBmhVwr-7" value="&lt;b&gt;Terraform Cloud&lt;/b&gt;" style="text;html=1;strokeColor=none;fillColor=none;align=center;verticalAlign=middle;whiteSpace=wrap;rounded=0;" vertex="1" parent="1">
          <mxGeometry x="780" y="280" width="100" height="30" as="geometry" />
        </mxCell>
        <mxCell id="kYu9_AdjHKjTHxBmhVwr-10" value="" style="rounded=1;whiteSpace=wrap;html=1;fillColor=#e1d5e7;strokeColor=#9673a6;" vertex="1" parent="1">
          <mxGeometry x="1110" y="253.75" width="280" height="282.5" as="geometry" />
        </mxCell>
        <mxCell id="kYu9_AdjHKjTHxBmhVwr-11" value="OIDC" style="rounded=1;whiteSpace=wrap;html=1;" vertex="1" parent="1">
          <mxGeometry x="1150" y="293.75" width="120" height="50" as="geometry" />
        </mxCell>
        <mxCell id="kYu9_AdjHKjTHxBmhVwr-12" value="AWS" style="text;html=1;strokeColor=none;fillColor=none;align=center;verticalAlign=middle;whiteSpace=wrap;rounded=0;" vertex="1" parent="1">
          <mxGeometry x="1140" y="263.75" width="60" height="30" as="geometry" />
        </mxCell>
        <mxCell id="kYu9_AdjHKjTHxBmhVwr-13" value="VPC workspace" style="text;html=1;strokeColor=none;fillColor=none;align=center;verticalAlign=middle;whiteSpace=wrap;rounded=0;" vertex="1" parent="1">
          <mxGeometry x="800" y="340" width="60" height="30" as="geometry" />
        </mxCell>
        <mxCell id="kYu9_AdjHKjTHxBmhVwr-30" style="edgeStyle=orthogonalEdgeStyle;rounded=0;orthogonalLoop=1;jettySize=auto;html=1;exitX=1;exitY=0.5;exitDx=0;exitDy=0;entryX=0;entryY=0.5;entryDx=0;entryDy=0;startArrow=classic;startFill=1;strokeWidth=2;" edge="1" parent="1" source="kYu9_AdjHKjTHxBmhVwr-18" target="kYu9_AdjHKjTHxBmhVwr-24">
          <mxGeometry relative="1" as="geometry" />
        </mxCell>
        <mxCell id="kYu9_AdjHKjTHxBmhVwr-31" style="edgeStyle=orthogonalEdgeStyle;rounded=0;orthogonalLoop=1;jettySize=auto;html=1;exitX=0.5;exitY=1;exitDx=0;exitDy=0;entryX=0.5;entryY=0;entryDx=0;entryDy=0;strokeWidth=2;" edge="1" parent="1" source="kYu9_AdjHKjTHxBmhVwr-18" target="kYu9_AdjHKjTHxBmhVwr-25">
          <mxGeometry relative="1" as="geometry" />
        </mxCell>
        <mxCell id="kYu9_AdjHKjTHxBmhVwr-32" style="edgeStyle=orthogonalEdgeStyle;rounded=0;orthogonalLoop=1;jettySize=auto;html=1;exitX=0.75;exitY=0;exitDx=0;exitDy=0;entryX=0;entryY=0.5;entryDx=0;entryDy=0;startArrow=classic;startFill=1;strokeWidth=2;" edge="1" parent="1" source="kYu9_AdjHKjTHxBmhVwr-18" target="kYu9_AdjHKjTHxBmhVwr-11">
          <mxGeometry relative="1" as="geometry" />
        </mxCell>
        <mxCell id="kYu9_AdjHKjTHxBmhVwr-34" style="edgeStyle=orthogonalEdgeStyle;rounded=0;orthogonalLoop=1;jettySize=auto;html=1;exitX=0;exitY=0.5;exitDx=0;exitDy=0;entryX=1;entryY=0.5;entryDx=0;entryDy=0;strokeWidth=2;" edge="1" parent="1" source="kYu9_AdjHKjTHxBmhVwr-18" target="kYu9_AdjHKjTHxBmhVwr-33">
          <mxGeometry relative="1" as="geometry">
            <Array as="points">
              <mxPoint x="670" y="415" />
              <mxPoint x="670" y="220" />
            </Array>
          </mxGeometry>
        </mxCell>
        <mxCell id="kYu9_AdjHKjTHxBmhVwr-18" value="Terraform Run Job" style="rounded=1;whiteSpace=wrap;html=1;" vertex="1" parent="1">
          <mxGeometry x="810" y="380" width="90" height="70" as="geometry" />
        </mxCell>
        <mxCell id="kYu9_AdjHKjTHxBmhVwr-22" value="&lt;b&gt;API call&lt;/b&gt;" style="text;html=1;strokeColor=none;fillColor=none;align=center;verticalAlign=middle;whiteSpace=wrap;rounded=0;" vertex="1" parent="1">
          <mxGeometry x="470" y="296.25" width="60" height="30" as="geometry" />
        </mxCell>
        <mxCell id="kYu9_AdjHKjTHxBmhVwr-23" value="Copy" style="text;html=1;strokeColor=none;fillColor=none;align=center;verticalAlign=middle;whiteSpace=wrap;rounded=0;" vertex="1" parent="1">
          <mxGeometry x="290" y="520" width="60" height="30" as="geometry" />
        </mxCell>
        <mxCell id="kYu9_AdjHKjTHxBmhVwr-24" value="AWS Provider API" style="rounded=1;whiteSpace=wrap;html=1;" vertex="1" parent="1">
          <mxGeometry x="1150" y="386.25" width="180" height="120" as="geometry" />
        </mxCell>
        <mxCell id="kYu9_AdjHKjTHxBmhVwr-25" value="TF State" style="rounded=1;whiteSpace=wrap;html=1;" vertex="1" parent="1">
          <mxGeometry x="825" y="490" width="60" height="30" as="geometry" />
        </mxCell>
        <mxCell id="kYu9_AdjHKjTHxBmhVwr-33" value="Comments" style="rounded=1;whiteSpace=wrap;html=1;" vertex="1" parent="1">
          <mxGeometry x="285" y="200" width="112.5" height="40" as="geometry" />
        </mxCell>
        <mxCell id="kYu9_AdjHKjTHxBmhVwr-36" value="1" style="text;html=1;strokeColor=none;fillColor=none;align=center;verticalAlign=middle;whiteSpace=wrap;rounded=0;" vertex="1" parent="1">
          <mxGeometry x="315" y="326.25" width="60" height="30" as="geometry" />
        </mxCell>
        <mxCell id="kYu9_AdjHKjTHxBmhVwr-40" value="2" style="text;html=1;strokeColor=none;fillColor=none;align=center;verticalAlign=middle;whiteSpace=wrap;rounded=0;" vertex="1" parent="1">
          <mxGeometry x="490" y="253.75" width="60" height="30" as="geometry" />
        </mxCell>
        <mxCell id="kYu9_AdjHKjTHxBmhVwr-41" value="3" style="text;html=1;strokeColor=none;fillColor=none;align=center;verticalAlign=middle;whiteSpace=wrap;rounded=0;" vertex="1" parent="1">
          <mxGeometry x="980" y="280" width="60" height="30" as="geometry" />
        </mxCell>
        <mxCell id="kYu9_AdjHKjTHxBmhVwr-42" value="4" style="text;html=1;strokeColor=none;fillColor=none;align=center;verticalAlign=middle;whiteSpace=wrap;rounded=0;" vertex="1" parent="1">
          <mxGeometry x="980" y="386.25" width="60" height="30" as="geometry" />
        </mxCell>
        <mxCell id="kYu9_AdjHKjTHxBmhVwr-43" value="5" style="text;html=1;strokeColor=none;fillColor=none;align=center;verticalAlign=middle;whiteSpace=wrap;rounded=0;" vertex="1" parent="1">
          <mxGeometry x="850" y="450" width="60" height="30" as="geometry" />
        </mxCell>
        <mxCell id="kYu9_AdjHKjTHxBmhVwr-44" value="6" style="text;html=1;strokeColor=none;fillColor=none;align=center;verticalAlign=middle;whiteSpace=wrap;rounded=0;" vertex="1" parent="1">
          <mxGeometry x="490" y="190" width="60" height="30" as="geometry" />
        </mxCell>
        <mxCell id="kYu9_AdjHKjTHxBmhVwr-45" value="AWS Dynamic Credentials" style="text;html=1;strokeColor=none;fillColor=none;align=center;verticalAlign=middle;whiteSpace=wrap;rounded=0;" vertex="1" parent="1">
          <mxGeometry x="955" y="326.25" width="110" height="30" as="geometry" />
        </mxCell>
      </root>
    </mxGraphModel>
  </diagram>
</mxfile>
